<svg xmlns="http://www.w3.org/2000/svg" viewBox="0 0 98.99 98.99"><defs><style>.cls-2{fill:#dbb13b}</style></defs><g id="Layer_2" data-name="Layer 2"><g id="TEXT"><g id="Group_299" data-name="Group 299"><path id="Rectangle_211" data-name="Rectangle 211" transform="rotate(-45 49.502 49.496)" fill="#2d325a" d="M14.5 14.5h70v70h-70z"/><g id="Group_114" data-name="Group 114"><path id="Path_15" data-name="Path 15" class="cls-2" d="M49.5 57.12s-7.33-5.62-7.33-12.56S49.5 32 49.5 32s7.33 5.62 7.33 12.56-7.33 12.56-7.33 12.56z"/><path id="Path_16" data-name="Path 16" class="cls-2" d="M57.74 61.84s-1.66-7 1.77-11.23 10.64-4 10.64-4 1.66 7-1.77 11.22-10.64 4.01-10.64 4.01z"/><path id="Path_17" data-name="Path 17" class="cls-2" d="M41.26 61.84s1.66-7-1.77-11.23-10.65-4-10.65-4-1.66 7 1.77 11.22 10.65 4.01 10.65 4.01z"/></g></g></g></g></svg>