<svg xmlns="http://www.w3.org/2000/svg" viewBox="0 0 1920 1753.36"><defs><style>.cls-1{fill:#fff}.cls-2{fill:#304b78}</style></defs><g id="Layer_2" data-name="Layer 2"><g id="TEXT"><path id="Rectangle_186" data-name="Rectangle 186" class="cls-1" transform="rotate(-45 959.67 989.682)" d="M419.68 449.68h1080v1080h-1080z"/><path class="cls-2" d="M1566.69 864.33L1920 1217.64V511.02l-353.31 353.31zM0 511.66v705.98l352.99-352.99L0 511.66z"/><path class="cls-1" d="M1566.45 864.09l.24.24L1920 511.02v-.48l-353.55 353.55zM0 510.54v1.12l352.99 352.99.56-.56L0 510.54z"/><g id="Rectangle_193" data-name="Rectangle 193" fill="none"><path transform="rotate(-45 959.674 863.72)" d="M349.67 253.71h1220v1220h-1220z"/><path stroke="#cdb647" stroke-width="5" d="M100.53 863.716L959.664 4.581 1818.8 863.716l-859.135 859.135z"/></g><path class="cls-1" d="M353.55 864.09l-.56.56 606.69 606.69 607.01-607.01-.24-.24L1920 510.54V0H0v510.54l353.55 353.55z"/></g></g></svg>