<svg xmlns="http://www.w3.org/2000/svg" viewBox="0 0 368.21 54.45"><defs><style>.cls-1{fill:#2d325a}</style></defs><g id="Layer_2" data-name="Layer 2"><g id="TEXT"><path class="cls-1" d="M19.56 17.28c0 11.24-7 13.91-13 13.91H0V3.64h5.76c7.04 0 13.8 2.2 13.8 13.64zM3.8 28.2h3.08c4.32 0 8.64-1.84 8.64-10.92C15.52 8 11 6.68 6.6 6.68H3.8zM36.8 9.88l-.68 3.6a6.61 6.61 0 00-1.84-.24c-2.64 0-4.16 1.88-5 5.92v12h-3.72V10.12h3.16l.36 4.28c1.12-3.16 3.08-4.76 5.64-4.76a9 9 0 012.08.24zM42 28.88a2.78 2.78 0 11-2.8-2.76 2.76 2.76 0 012.8 2.76zM63.72 31.19L54.84 3.64h4.08l6.92 23.44 6.92-23.44h3.84l-8.8 27.55zM85 2.52a2.58 2.58 0 01-5.16 0 2.58 2.58 0 015.16 0zm-4.4 28.67V10.12h3.68v21.07zM106 11.92l-1.8 2.4a6.67 6.67 0 00-4.48-1.64c-3.32 0-5.4 2.6-5.4 8.08s2.08 7.8 5.4 7.8a6.88 6.88 0 004.52-1.72l1.76 2.52a10 10 0 01-6.44 2.31c-5.68 0-9.2-4-9.2-10.83s3.48-11.2 9.2-11.2a9.37 9.37 0 016.44 2.28zM117 31.67c-3.56 0-5.68-2.07-5.68-6V13h-3.72v-2.88h3.68V5.36l3.72-.44v5.2h5l-.4 2.84H115v12.56c0 2.12.68 3.12 2.52 3.12a5.15 5.15 0 002.8-.92l1.4 2.51a8 8 0 01-4.72 1.44zM142.36 20.64c0 6.52-3.44 11-9.4 11s-9.4-4.31-9.4-11c0-6.52 3.44-11 9.44-11s9.36 4.36 9.36 11zm-14.84 0c0 5.48 1.92 8 5.44 8s5.44-2.56 5.44-8.08-1.92-8-5.4-8-5.48 2.6-5.48 8.12zM159.68 9.88l-.68 3.6a6.61 6.61 0 00-1.84-.24c-2.64 0-4.16 1.88-5 5.92v12h-3.68V10.12h3.16l.36 4.28c1.12-3.16 3.08-4.76 5.64-4.76a9 9 0 012.04.24zM168.28 2.52a2.58 2.58 0 01-5.16 0 2.58 2.58 0 015.16 0zm-4.4 28.67V10.12h3.68v21.07zM191.12 29.12l-.84 2.55c-2.12-.24-3.48-1.08-4.12-3.15a7.2 7.2 0 01-6.28 3.15c-4.2 0-6.72-2.59-6.72-6.35 0-4.52 3.4-7 9.28-7h3.24V16.8c0-3-1.48-4.16-4.4-4.16a18.87 18.87 0 00-5.68 1.12l-.92-2.68A20.64 20.64 0 01182 9.64c5.08 0 7.4 2.6 7.4 7v9.64c-.04 1.84.6 2.44 1.72 2.84zm-5.44-3.48V20.8h-2.76c-3.88 0-5.84 1.44-5.84 4.32 0 2.48 1.24 3.8 3.64 3.8 2.16 0 3.76-1.08 4.96-3.28zM225 5.88l-2.07 2.44a8.09 8.09 0 00-5.32-2c-4.16 0-7.64 2.8-7.64 11.12 0 8 3.32 11.08 7.6 11.08a9.24 9.24 0 005.84-2.32l1.91 2.44a10.72 10.72 0 01-7.87 3.07c-6.68 0-11.52-5-11.52-14.27s5.2-14.24 11.44-14.24A10.82 10.82 0 01225 5.88zM246 16.08v15.11h-3.68V16.6c0-3.16-1.36-4.08-3.36-4.08-2.28 0-3.92 1.48-5.32 3.68v15h-3.68V1.68l3.68-.4V13a7.57 7.57 0 016.24-3.4c3.8.04 6.12 2.52 6.12 6.48zM269.31 29.12l-.83 2.55c-2.12-.24-3.48-1.08-4.12-3.15a7.2 7.2 0 01-6.28 3.15c-4.2 0-6.72-2.59-6.72-6.35 0-4.52 3.4-7 9.28-7h3.24V16.8c0-3-1.48-4.16-4.4-4.16a18.87 18.87 0 00-5.68 1.12l-.92-2.68a20.64 20.64 0 017.28-1.44c5.08 0 7.4 2.6 7.4 7v9.64c0 1.84.68 2.44 1.75 2.84zm-5.43-3.48V20.8h-2.76c-3.88 0-5.84 1.44-5.84 4.32 0 2.48 1.24 3.8 3.64 3.8 2.16 0 3.76-1.08 4.96-3.28zM291.15 16.08v15.11h-3.67V16.6c0-3.16-1.28-4.08-3.32-4.08-2.36 0-4 1.48-5.36 3.72v15h-3.68V10.12h3.16l.32 3.12a7.65 7.65 0 016.4-3.6c3.92 0 6.15 2.44 6.15 6.44zM300.43 29.45a4.94 4.94 0 01-.54 2.13l-2 4.59h-2l1.2-5a2.18 2.18 0 01-.84-1.74 2.09 2.09 0 014.17 0zM323.59 31.19l-8.4-17.54c.15 1.71.39 4.23.39 8.07v9.47h-2.67V10.53h3.72l8.49 17.57c-.06-.48-.39-3.77-.39-6.29V10.53h2.67v20.66zM336.07 29.45a2.09 2.09 0 11-4.17 0 2.09 2.09 0 014.17 0zM355.27 20.76c0 8.42-5.25 10.43-9.72 10.43h-4.95V10.53h4.32c5.28 0 10.35 1.65 10.35 10.23zm-11.82 8.18h2.31c3.24 0 6.48-1.38 6.48-8.18 0-7-3.39-8-6.69-8h-2.1zM362 29.45a2.09 2.09 0 11-4.17 0 2.09 2.09 0 014.17 0zM0 54.28v-11h.79v11zM13.7 54.28l-5.42-10.1c0 .7.09 1.64.09 3.58v6.52h-.72v-11h1l5.42 10.1c0-.53-.09-1.76-.09-3.2v-6.9h.72v11zM24 44v10.28h-.75V44H20v-.69h7.4l-.1.69zM33.3 44v4.26h4v.66h-4v4.72h4.77v.66h-5.52v-11H38l-.09.65zM50.5 44.21l-.46.48a3.73 3.73 0 00-2.47-.87c-1.77 0-3.68 1.38-3.68 4.93s1.46 5 3.7 5a4.7 4.7 0 002.41-.56v-4.1h-2.25l-.1-.66h3.06v5.14a6.1 6.1 0 01-3.15.88c-2.66 0-4.47-1.9-4.47-5.7s2.24-5.58 4.47-5.58a4.22 4.22 0 012.94 1.04zM57.59 49.27v5h-.75v-11h2.57c2.6 0 3.8 1 3.8 2.93 0 1.66-.93 2.49-2.47 2.88l3 5.14h-.93l-2.88-5zm4.82-3c0-1.49-.84-2.28-3-2.28h-1.82v4.65h1.93c1.83-.01 2.89-.73 2.89-2.38zM69.64 51.2l-1 3.08h-.77l3.7-11h1l3.69 11h-.86l-1-3.08zM72 44l-2.18 6.58h4.32zM83.2 44v10.28h-.75V44h-3.28v-.69h7.4l-.1.69zM91.76 54.28v-11h.77v11zM101.46 54.28l-3.58-11h.81l3.22 10.18 3.22-10.18h.8l-3.59 11zM112 44v4.26h4v.66h-4v4.72h4.77v.66h-5.53v-11h5.43l-.1.65zM136.34 54.28l-5.42-10.1c0 .7.09 1.64.09 3.58v6.52h-.72v-11h1l5.42 10.1c0-.53-.09-1.76-.09-3.2v-6.9h.72v11zM144.45 51.2l-1 3.08h-.77l3.7-11h1l3.7 11h-.82l-1-3.08zm2.4-7.25l-2.17 6.58H149zM158 44v10.28h-.75V44H154v-.69h7.39l-.09.69zM169.92 54.45a3.21 3.21 0 01-3.5-3.55v-7.57h.75v7.5c0 1.8.83 2.93 2.75 2.93s2.74-1.16 2.74-2.93v-7.5h.77v7.57a3.23 3.23 0 01-3.51 3.55zM180.9 49.27v5h-.75v-11h2.57c2.6 0 3.8 1 3.8 2.93 0 1.66-.93 2.49-2.47 2.88l3 5.14h-.93l-2.88-5zm4.82-3c0-1.49-.83-2.28-3-2.28h-1.82v4.65h1.94c1.82-.01 2.88-.73 2.88-2.38zM200.63 48.82c0 3.58-1.73 5.63-4.42 5.63s-4.4-2-4.4-5.62 1.81-5.66 4.4-5.66 4.42 1.95 4.42 5.65zm-8 0c0 3.32 1.47 5 3.6 5s3.62-1.63 3.62-5-1.42-5-3.62-5-3.62 1.64-3.62 5.01zM213.22 46.58c0 2.43-1.68 3.34-4 3.34h-1.65v4.36h-.75v-11h2.45c2.48.05 3.95 1.04 3.95 3.3zm-.8 0c0-1.93-1.15-2.61-3.18-2.61h-1.7v5.3h1.66c1.89.01 3.22-.61 3.22-2.68zM218.18 51.2l-1 3.08h-.77l3.7-11h1l3.7 11h-.82l-1-3.08zm2.4-7.25l-2.18 6.58h4.33zM231.75 44v10.28H231V44h-3.29v-.69h7.4L235 44zM241.06 48.85v5.43h-.75v-11h.75v4.85h5.47v-4.8h.77v11h-.77v-5.48zM254.18 54.28v-11h.82v11zM268.21 44.14l-.41.52a3.34 3.34 0 00-2.28-.84c-2 0-3.63 1.43-3.63 5 0 3.38 1.59 5 3.59 5a3.52 3.52 0 002.43-.92l.43.51a4.08 4.08 0 01-2.9 1.1c-2.49 0-4.35-2-4.35-5.65s2-5.63 4.39-5.63a3.94 3.94 0 012.73.91zM290.07 54.28l-.54-5.35c-.2-1.78-.39-3.84-.47-4.88L286.18 53h-.74l-3-8.91c-.05 1-.26 3.1-.42 4.8l-.51 5.43h-.72l1.07-11H283l2.87 8.74 2.78-8.74h1.09l1.11 11zM297.81 44v4.26h4v.66h-4v4.72h4.77v.66h-5.52v-11h5.43l-.1.65zM315.41 48.71c0 4.56-2.64 5.57-4.85 5.57h-2.24v-11h2.13c2.45.05 4.96.93 4.96 5.43zm-6.33 4.91h1.53c1.95 0 4-.88 4-4.91S312.48 44 310.5 44h-1.42zM321.57 54.28v-11h.77v11zM335.6 44.14l-.41.52a3.33 3.33 0 00-2.27-.84c-2 0-3.64 1.43-3.64 5 0 3.38 1.59 5 3.59 5a3.52 3.52 0 002.43-.92l.43.51a4.07 4.07 0 01-2.89 1.1c-2.5 0-4.36-2-4.36-5.65s2-5.63 4.39-5.63a3.94 3.94 0 012.73.91zM341.15 54.28v-11h.77v11zM354.84 54.28l-5.43-10.1c0 .7.1 1.64.1 3.58v6.52h-.72v-11h1l5.43 10.1c0-.53-.1-1.76-.1-3.2v-6.9h.72v11zM363.44 44v4.26h4v.66h-4v4.72h4.77v.66h-5.52v-11h5.43l-.12.7z"/></g></g></svg>