<svg xmlns="http://www.w3.org/2000/svg" viewBox="0 0 368.21 54.45"><defs><style>.cls-1{fill:#2d325a;}</style></defs><g id="Layer_2" data-name="Layer 2"><g id="TEXT"><path class="cls-1" d="M19.56,17.28c0,11.24-7,13.91-13,13.91H0V3.64H5.76C12.8,3.64,19.56,5.84,19.56,17.28ZM3.8,28.2H6.88c4.32,0,8.64-1.84,8.64-10.92C15.52,8,11,6.68,6.6,6.68H3.8Z"/><path class="cls-1" d="M36.8,9.88l-.68,3.6a6.61,6.61,0,0,0-1.84-.24c-2.64,0-4.16,1.88-5,5.92v12H25.56V10.12h3.16l.36,4.28c1.12-3.16,3.08-4.76,5.64-4.76A9,9,0,0,1,36.8,9.88Z"/><path class="cls-1" d="M42,28.88a2.78,2.78,0,1,1-2.8-2.76A2.76,2.76,0,0,1,42,28.88Z"/><path class="cls-1" d="M63.72,31.19,54.84,3.64h4.08l6.92,23.44L72.76,3.64H76.6L67.8,31.19Z"/><path class="cls-1" d="M85,2.52a2.58,2.58,0,0,1-5.16,0,2.58,2.58,0,0,1,5.16,0Zm-4.4,28.67V10.12h3.68V31.19Z"/><path class="cls-1" d="M106,11.92l-1.8,2.4a6.67,6.67,0,0,0-4.48-1.64c-3.32,0-5.4,2.6-5.4,8.08s2.08,7.8,5.4,7.8a6.88,6.88,0,0,0,4.52-1.72L106,29.36a10,10,0,0,1-6.44,2.31c-5.68,0-9.2-4-9.2-10.83s3.48-11.2,9.2-11.2A9.37,9.37,0,0,1,106,11.92Z"/><path class="cls-1" d="M117,31.67c-3.56,0-5.68-2.07-5.68-6V13H107.6V10.12h3.68V5.36L115,4.92v5.2h5l-.4,2.84H115V25.52c0,2.12.68,3.12,2.52,3.12a5.15,5.15,0,0,0,2.8-.92l1.4,2.51A8,8,0,0,1,117,31.67Z"/><path class="cls-1" d="M142.36,20.64c0,6.52-3.44,11-9.4,11s-9.4-4.31-9.4-11c0-6.52,3.44-11,9.44-11S142.36,14,142.36,20.64Zm-14.84,0c0,5.48,1.92,8,5.44,8s5.44-2.56,5.44-8.08-1.92-8-5.4-8S127.52,15.16,127.52,20.68Z"/><path class="cls-1" d="M159.68,9.88l-.68,3.6a6.61,6.61,0,0,0-1.84-.24c-2.64,0-4.16,1.88-5,5.92v12h-3.68V10.12h3.16L152,14.4c1.12-3.16,3.08-4.76,5.64-4.76A9,9,0,0,1,159.68,9.88Z"/><path class="cls-1" d="M168.28,2.52a2.58,2.58,0,0,1-5.16,0,2.58,2.58,0,0,1,5.16,0Zm-4.4,28.67V10.12h3.68V31.19Z"/><path class="cls-1" d="M191.12,29.12l-.84,2.55c-2.12-.24-3.48-1.08-4.12-3.15a7.2,7.2,0,0,1-6.28,3.15c-4.2,0-6.72-2.59-6.72-6.35,0-4.52,3.4-7,9.28-7h3.24V16.8c0-3-1.48-4.16-4.4-4.16a18.87,18.87,0,0,0-5.68,1.12l-.92-2.68A20.64,20.64,0,0,1,182,9.64c5.08,0,7.4,2.6,7.4,7v9.64C189.36,28.12,190,28.72,191.12,29.12Zm-5.44-3.48V20.8h-2.76c-3.88,0-5.84,1.44-5.84,4.32,0,2.48,1.24,3.8,3.64,3.8C182.88,28.92,184.48,27.84,185.68,25.64Z"/><path class="cls-1" d="M225,5.88l-2.07,2.44a8.09,8.09,0,0,0-5.32-2c-4.16,0-7.64,2.8-7.64,11.12,0,8,3.32,11.08,7.6,11.08a9.24,9.24,0,0,0,5.84-2.32l1.91,2.44a10.72,10.72,0,0,1-7.87,3.07c-6.68,0-11.52-5-11.52-14.27s5.2-14.24,11.44-14.24A10.82,10.82,0,0,1,225,5.88Z"/><path class="cls-1" d="M246,16.08V31.19h-3.68V16.6c0-3.16-1.36-4.08-3.36-4.08-2.28,0-3.92,1.48-5.32,3.68v15h-3.68V1.68l3.68-.4V13a7.57,7.57,0,0,1,6.24-3.4C243.68,9.64,246,12.12,246,16.08Z"/><path class="cls-1" d="M269.31,29.12l-.83,2.55c-2.12-.24-3.48-1.08-4.12-3.15a7.2,7.2,0,0,1-6.28,3.15c-4.2,0-6.72-2.59-6.72-6.35,0-4.52,3.4-7,9.28-7h3.24V16.8c0-3-1.48-4.16-4.4-4.16a18.87,18.87,0,0,0-5.68,1.12l-.92-2.68a20.64,20.64,0,0,1,7.28-1.44c5.08,0,7.4,2.6,7.4,7v9.64C267.56,28.12,268.24,28.72,269.31,29.12Zm-5.43-3.48V20.8h-2.76c-3.88,0-5.84,1.44-5.84,4.32,0,2.48,1.24,3.8,3.64,3.8C261.08,28.92,262.68,27.84,263.88,25.64Z"/><path class="cls-1" d="M291.15,16.08V31.19h-3.67V16.6c0-3.16-1.28-4.08-3.32-4.08-2.36,0-4,1.48-5.36,3.72v15h-3.68V10.12h3.16l.32,3.12A7.65,7.65,0,0,1,285,9.64C288.92,9.64,291.15,12.08,291.15,16.08Z"/><path class="cls-1" d="M300.43,29.45a4.94,4.94,0,0,1-.54,2.13l-2,4.59h-2l1.2-5a2.18,2.18,0,0,1-.84-1.74,2.09,2.09,0,0,1,4.17,0Z"/><path class="cls-1" d="M323.59,31.19l-8.4-17.54c.15,1.71.39,4.23.39,8.07v9.47h-2.67V10.53h3.72l8.49,17.57c-.06-.48-.39-3.77-.39-6.29V10.53h2.67V31.19Z"/><path class="cls-1" d="M336.07,29.45a2.09,2.09,0,1,1-4.17,0,2.09,2.09,0,0,1,4.17,0Z"/><path class="cls-1" d="M355.27,20.76c0,8.42-5.25,10.43-9.72,10.43H340.6V10.53h4.32C350.2,10.53,355.27,12.18,355.27,20.76Zm-11.82,8.18h2.31c3.24,0,6.48-1.38,6.48-8.18,0-7-3.39-8-6.69-8h-2.1Z"/><path class="cls-1" d="M362,29.45a2.09,2.09,0,1,1-4.17,0,2.09,2.09,0,0,1,4.17,0Z"/><path class="cls-1" d="M0,54.28v-11H.79v11Z"/><path class="cls-1" d="M13.7,54.28,8.28,44.18c0,.7.09,1.64.09,3.58v6.52H7.65v-11h1l5.42,10.1c0-.53-.09-1.76-.09-3.2v-6.9h.72v11Z"/><path class="cls-1" d="M24,44V54.28h-.75V44H20v-.69h7.4l-.1.69Z"/><path class="cls-1" d="M33.3,44v4.26h4v.66h-4v4.72h4.77v.66H32.55v-11H38l-.09.65Z"/><path class="cls-1" d="M50.5,44.21l-.46.48a3.73,3.73,0,0,0-2.47-.87c-1.77,0-3.68,1.38-3.68,4.93s1.46,5,3.7,5A4.7,4.7,0,0,0,50,53.19v-4.1H47.75l-.1-.66h3.06v5.14a6.1,6.1,0,0,1-3.15.88c-2.66,0-4.47-1.9-4.47-5.7s2.24-5.58,4.47-5.58A4.22,4.22,0,0,1,50.5,44.21Z"/><path class="cls-1" d="M57.59,49.27v5h-.75v-11h2.57c2.6,0,3.8,1,3.8,2.93,0,1.66-.93,2.49-2.47,2.88l3,5.14h-.93l-2.88-5Zm4.82-3c0-1.49-.84-2.28-3-2.28H57.59v4.65h1.93C61.35,48.63,62.41,47.91,62.41,46.26Z"/><path class="cls-1" d="M69.64,51.2l-1,3.08h-.77l3.7-11h1l3.69,11H75.4l-1-3.08ZM72,44l-2.18,6.58h4.32Z"/><path class="cls-1" d="M83.2,44V54.28h-.75V44H79.17v-.69h7.4l-.1.69Z"/><path class="cls-1" d="M91.76,54.28v-11h.77v11Z"/><path class="cls-1" d="M101.46,54.28l-3.58-11h.81l3.22,10.18,3.22-10.18h.8l-3.59,11Z"/><path class="cls-1" d="M112,44v4.26H116v.66H112v4.72h4.77v.66h-5.53v-11h5.43l-.1.65Z"/><path class="cls-1" d="M136.34,54.28l-5.42-10.1c0,.7.09,1.64.09,3.58v6.52h-.72v-11h1l5.42,10.1c0-.53-.09-1.76-.09-3.2v-6.9h.72v11Z"/><path class="cls-1" d="M144.45,51.2l-1,3.08h-.77l3.7-11h1l3.7,11h-.82l-1-3.08Zm2.4-7.25-2.17,6.58H149Z"/><path class="cls-1" d="M158,44V54.28h-.75V44H154v-.69h7.39l-.09.69Z"/><path class="cls-1" d="M169.92,54.45a3.21,3.21,0,0,1-3.5-3.55V43.33h.75v7.5c0,1.8.83,2.93,2.75,2.93s2.74-1.16,2.74-2.93v-7.5h.77V50.9A3.23,3.23,0,0,1,169.92,54.45Z"/><path class="cls-1" d="M180.9,49.27v5h-.75v-11h2.57c2.6,0,3.8,1,3.8,2.93,0,1.66-.93,2.49-2.47,2.88l3,5.14h-.93l-2.88-5Zm4.82-3c0-1.49-.83-2.28-3-2.28H180.9v4.65h1.94C184.66,48.63,185.72,47.91,185.72,46.26Z"/><path class="cls-1" d="M200.63,48.82c0,3.58-1.73,5.63-4.42,5.63s-4.4-2-4.4-5.62,1.81-5.66,4.4-5.66S200.63,45.12,200.63,48.82Zm-8,0c0,3.32,1.47,5,3.6,5s3.62-1.63,3.62-5-1.42-5-3.62-5S192.61,45.46,192.61,48.83Z"/><path class="cls-1" d="M213.22,46.58c0,2.43-1.68,3.34-4,3.34h-1.65v4.36h-.75v-11h2.45C211.75,43.33,213.22,44.32,213.22,46.58Zm-.8,0c0-1.93-1.15-2.61-3.18-2.61h-1.7v5.3h1.66C211.09,49.28,212.42,48.66,212.42,46.59Z"/><path class="cls-1" d="M218.18,51.2l-1,3.08h-.77l3.7-11h1l3.7,11h-.82l-1-3.08Zm2.4-7.25-2.18,6.58h4.33Z"/><path class="cls-1" d="M231.75,44V54.28H231V44h-3.29v-.69h7.4L235,44Z"/><path class="cls-1" d="M241.06,48.85v5.43h-.75v-11h.75v4.85h5.47V43.33h.77v11h-.77V48.85Z"/><path class="cls-1" d="M254.18,54.28v-11H255v11Z"/><path class="cls-1" d="M268.21,44.14l-.41.52a3.34,3.34,0,0,0-2.28-.84c-2,0-3.63,1.43-3.63,5,0,3.38,1.59,5,3.59,5a3.52,3.52,0,0,0,2.43-.92l.43.51a4.08,4.08,0,0,1-2.9,1.1c-2.49,0-4.35-2-4.35-5.65s2-5.63,4.39-5.63A3.94,3.94,0,0,1,268.21,44.14Z"/><path class="cls-1" d="M290.07,54.28l-.54-5.35c-.2-1.78-.39-3.84-.47-4.88L286.18,53h-.74l-3-8.91c-.05,1-.26,3.1-.42,4.8l-.51,5.43h-.72l1.07-11H283l2.87,8.74,2.78-8.74h1.09l1.11,11Z"/><path class="cls-1" d="M297.81,44v4.26h4v.66h-4v4.72h4.77v.66h-5.52v-11h5.43l-.1.65Z"/><path class="cls-1" d="M315.41,48.71c0,4.56-2.64,5.57-4.85,5.57h-2.24v-11h2.13C312.9,43.33,315.41,44.21,315.41,48.71Zm-6.33,4.91h1.53c1.95,0,4-.88,4-4.91S312.48,44,310.5,44h-1.42Z"/><path class="cls-1" d="M321.57,54.28v-11h.77v11Z"/><path class="cls-1" d="M335.6,44.14l-.41.52a3.33,3.33,0,0,0-2.27-.84c-2,0-3.64,1.43-3.64,5,0,3.38,1.59,5,3.59,5a3.52,3.52,0,0,0,2.43-.92l.43.51a4.07,4.07,0,0,1-2.89,1.1c-2.5,0-4.36-2-4.36-5.65s2-5.63,4.39-5.63A3.94,3.94,0,0,1,335.6,44.14Z"/><path class="cls-1" d="M341.15,54.28v-11h.77v11Z"/><path class="cls-1" d="M354.84,54.28l-5.43-10.1c0,.7.1,1.64.1,3.58v6.52h-.72v-11h1l5.43,10.1c0-.53-.1-1.76-.1-3.2v-6.9h.72v11Z"/><path class="cls-1" d="M363.44,44v4.26h4v.66h-4v4.72h4.77v.66h-5.52v-11h5.43L368,44Z"/></g></g></svg>