<svg xmlns="http://www.w3.org/2000/svg" viewBox="0 0 16.38 16.38"><g data-name="Layer 2"><path data-name="Path 3" d="M8.19 1.47a25.31 25.31 0 013.26.09 4.29 4.29 0 011.55.27 3.22 3.22 0 011.54 1.55 4.24 4.24 0 01.28 1.54c0 .81.09 1.09.09 3.26a25.41 25.41 0 01-.09 3.27 4.34 4.34 0 01-.28 1.55A3.16 3.16 0 0113 14.54a4 4 0 01-1.54.27c-.82 0-1.09.09-3.27.09a23.81 23.81 0 01-3.27-.08 4.34 4.34 0 01-1.55-.28A3.16 3.16 0 011.83 13a4 4 0 01-.27-1.54c0-.82-.09-1.09-.09-3.27a25.51 25.51 0 01.09-3.27 4.33 4.33 0 01.27-1.55 3.35 3.35 0 01.64-.9 1.5 1.5 0 01.9-.64 4.33 4.33 0 011.55-.27 25.46 25.46 0 013.27-.09m0-1.47a26.88 26.88 0 00-3.36.11 5.66 5.66 0 00-2 .36 3.6 3.6 0 00-1.46.91 3.59 3.59 0 00-.9 1.45 4.17 4.17 0 00-.36 2A26.94 26.94 0 000 8.19a26.94 26.94 0 00.09 3.36 5.7 5.7 0 00.36 2A3.5 3.5 0 001.38 15a3.5 3.5 0 001.45.91 5.7 5.7 0 002 .36 26.94 26.94 0 003.36.09 26.94 26.94 0 003.36-.09 5.7 5.7 0 002-.36 3.81 3.81 0 002.36-2.36 5.49 5.49 0 00.36-2c0-.91.09-1.18.09-3.36a26.94 26.94 0 00-.09-3.36 5.49 5.49 0 00-.36-2A3.5 3.5 0 0015 1.38a3.48 3.48 0 00-1.46-.91 5.62 5.62 0 00-2-.36A26.72 26.72 0 008.19 0m0 4A4.11 4.11 0 004 8.05v.14A4.18 4.18 0 108.19 4m0 6.9a2.68 2.68 0 01-2.73-2.62v-.09a2.69 2.69 0 012.63-2.73h.1a2.68 2.68 0 012.72 2.63v.1a2.68 2.68 0 01-2.62 2.72h-.1m4.35-8.08a1 1 0 101 1 1 1 0 00-1-1" fill="#fff" fill-rule="evenodd"/></g></svg>