<svg xmlns="http://www.w3.org/2000/svg" viewBox="0 0 191.77 27.52"><defs><style>.cls-1{fill:#304b78}.cls-2{fill:#2d325a}</style></defs><g id="Layer_2" data-name="Layer 2"><g id="TEXT"><path class="cls-1" d="M10.27 9.07c0 5.9-3.68 7.31-6.81 7.31H0V1.91h3c3.72 0 7.27 1.16 7.27 7.16zM2 14.8h1.61c2.27 0 4.54-1 4.54-5.73S5.77 3.51 3.46 3.51H2zM19.32 5.19L19 7.08A3.19 3.19 0 0018 7c-1.39 0-2.19 1-2.65 3.11v6.32h-1.93V5.31h1.66l.19 2.25c.58-1.66 1.61-2.5 3-2.5a4.45 4.45 0 011.05.13zM22 15.16a1.46 1.46 0 11-1.47-1.45A1.45 1.45 0 0122 15.16zM33.45 16.38L28.79 1.91h2.14l3.63 12.3 3.64-12.3h2l-4.61 14.47zM44.65 1.32a1.29 1.29 0 01-1.37 1.3 1.27 1.27 0 01-1.34-1.3A1.28 1.28 0 0143.28 0a1.3 1.3 0 011.37 1.32zm-2.31 15.06V5.31h1.93v11.07zM55.67 6.26l-1 1.26a3.47 3.47 0 00-2.35-.86c-1.74 0-2.83 1.36-2.83 4.24s1.14 4.1 2.88 4.1a3.61 3.61 0 002.38-.9l.92 1.32a5.22 5.22 0 01-3.38 1.22c-3 0-4.83-2.12-4.83-5.69s1.83-5.88 4.83-5.88a4.93 4.93 0 013.38 1.19zM61.4 16.63c-1.87 0-3-1.09-3-3.15V6.8h-1.91V5.31h1.93v-2.5l1.93-.23v2.73H63l-.23 1.49h-2.42v6.6c0 1.11.36 1.63 1.33 1.63a2.68 2.68 0 001.47-.48l.73 1.32a4.16 4.16 0 01-2.48.76zM74.74 10.83c0 3.43-1.81 5.8-4.94 5.8s-4.93-2.27-4.93-5.78 1.8-5.79 4.95-5.79 4.92 2.27 4.92 5.77zm-7.79 0c0 2.88 1 4.23 2.85 4.23s2.86-1.35 2.86-4.25-1-4.22-2.84-4.22S67 8 67 10.85zM83.83 5.19l-.36 1.89a3.19 3.19 0 00-1-.13c-1.39 0-2.19 1-2.65 3.11v6.32h-1.89V5.31h1.66l.19 2.25c.59-1.66 1.61-2.5 3-2.5a4.4 4.4 0 011.05.13zM88.35 1.32A1.29 1.29 0 0187 2.62a1.27 1.27 0 01-1.34-1.3A1.28 1.28 0 0187 0a1.3 1.3 0 011.35 1.32zM86 16.38V5.31h2v11.07zM100.34 15.29l-.45 1.34A2.24 2.24 0 0197.73 15a3.77 3.77 0 01-3.29 1.66 3.22 3.22 0 01-3.53-3.34c0-2.37 1.78-3.65 4.87-3.65h1.7v-.85c0-1.6-.78-2.19-2.31-2.19a9.82 9.82 0 00-3 .59l-.48-1.4a10.68 10.68 0 013.82-.76c2.66 0 3.88 1.36 3.88 3.67v5.06c.02.97.38 1.29.95 1.5zm-2.86-1.83v-2.54H96c-2 0-3.06.75-3.06 2.27a1.74 1.74 0 001.91 2 2.85 2.85 0 002.63-1.73zM118.12 3.09L117 4.37a4.21 4.21 0 00-2.79-1.07c-2.19 0-4 1.47-4 5.83 0 4.18 1.74 5.82 4 5.82a4.84 4.84 0 003.06-1.22l1 1.28a5.65 5.65 0 01-4.14 1.62c-3.5 0-6-2.63-6-7.5s2.73-7.47 6-7.47a5.66 5.66 0 013.99 1.43zM129.13 8.44v7.94h-1.94V8.71c0-1.66-.71-2.14-1.76-2.14a3.38 3.38 0 00-2.79 1.93v7.88h-1.93V.88l1.93-.21v6.17a4 4 0 013.27-1.78 3 3 0 013.22 3.38zM141.39 15.29l-.39 1.34a2.23 2.23 0 01-2.21-1.63 3.8 3.8 0 01-3.3 1.66 3.22 3.22 0 01-3.49-3.37c0-2.37 1.79-3.65 4.87-3.65h1.7v-.82c0-1.6-.77-2.19-2.3-2.19a9.93 9.93 0 00-3 .59l-.48-1.4a10.72 10.72 0 013.82-.76c2.67 0 3.89 1.36 3.89 3.67v5.06c-.03.97.32 1.29.89 1.5zm-2.86-1.83v-2.54h-1.44c-2 0-3.07.75-3.07 2.27a1.74 1.74 0 001.91 2 2.83 2.83 0 002.6-1.73zM152.86 8.44v7.94h-1.94V8.71c0-1.66-.67-2.14-1.74-2.14a3.34 3.34 0 00-2.81 1.95v7.86h-1.93V5.31h1.66l.16 1.69a4 4 0 013.38-1.89c2.04-.05 3.22 1.23 3.22 3.33zM157.77 15.45a2.77 2.77 0 01-.28 1.14L156.41 19h-1l.64-2.65a1.15 1.15 0 01-.45-.93 1.11 1.11 0 112.22 0zM170.13 16.38L165.65 7c.08.92.2 2.26.2 4.31v5.06h-1.42v-11h2l4.53 9.38c0-.26-.2-2-.2-3.36v-6h1.42v11zM176.78 15.45a1.11 1.11 0 11-1.12-1.11 1.11 1.11 0 011.12 1.11zM187 10.81c0 4.49-2.8 5.57-5.18 5.57h-2.62v-11h2.3c2.82-.03 5.5.85 5.5 5.43zm-6.3 4.37h1.3c1.73 0 3.46-.74 3.46-4.37s-1.81-4.25-3.57-4.25h-1.12zM190.6 15.45a1.11 1.11 0 11-1.12-1.11 1.11 1.11 0 011.12 1.11z"/><path class="cls-2" d="M0 27.43V22h.38v5.47zM7.08 27.43l-2.71-5.05v5.05h-.31V22h.48l2.71 5v-5h.36v5.47zM12.46 22.3v5.13h-.37V22.3h-1.64V22h3.69l-.05.34zM17.36 22.29v2.12h2v.33h-2v2.36h2.38v.33H17V22h2.71v.33zM26.2 22.4l-.23.24a1.86 1.86 0 00-1.24-.43c-.88 0-1.83.68-1.83 2.46s.72 2.51 1.84 2.51a2.29 2.29 0 001.19-.3v-2h-1.11l-.05-.33h1.53v2.57a3 3 0 01-1.57.44c-1.33 0-2.23-1-2.23-2.85s1.12-2.79 2.23-2.79a2.13 2.13 0 011.47.48zM30 24.93v2.5h-.37V22h1.27c1.29 0 1.89.52 1.89 1.46a1.38 1.38 0 01-1.23 1.44l1.51 2.57h-.46l-1.44-2.5zm2.41-1.51c0-.74-.42-1.13-1.52-1.13H30v2.32h1c.86 0 1.39-.36 1.39-1.19zM36.25 25.89l-.51 1.54h-.38L37.21 22h.48l1.84 5.47h-.4l-.51-1.54zm1.2-3.62l-1.09 3.29h2.16zM43.27 22.3v5.13h-.37V22.3h-1.64V22H45l-.05.34zM47.79 27.43V22h.39v5.47zM52.88 27.43L51.09 22h.41l1.6 5 1.61-5h.4l-1.79 5.47zM58.41 22.29v2.12h2v.33h-2v2.36h2.38v.33H58V22h2.71l-.05.33zM71 27.43l-2.71-5.05v5.05H68V22h.48l2.71 5v-5h.36v5.47zM75.34 25.89l-.51 1.54h-.38L76.3 22h.47l1.85 5.47h-.41l-.5-1.54zm1.2-3.62l-1.09 3.29h2.16zM82.36 22.3v5.13H82V22.3h-1.66V22H84v.3zM88.55 27.52a1.61 1.61 0 01-1.75-1.78V22h.38v3.75c0 .89.41 1.46 1.37 1.46s1.37-.58 1.37-1.46V22h.38v3.78a1.62 1.62 0 01-1.75 1.74zM94.28 24.93v2.5h-.38V22h1.29c1.3 0 1.9.52 1.9 1.46a1.39 1.39 0 01-1.24 1.44l1.52 2.57h-.47l-1.44-2.5zm2.41-1.51c0-.74-.42-1.13-1.52-1.13h-.89v2.32h1c.88 0 1.41-.36 1.41-1.19zM104.38 24.7c0 1.79-.86 2.82-2.21 2.82s-2.19-1-2.19-2.81.9-2.83 2.19-2.83 2.21.97 2.21 2.82zm-4 0c0 1.65.73 2.47 1.79 2.47s1.83-.81 1.83-2.47-.71-2.49-1.81-2.49-1.81.79-1.81 2.5zM110.92 23.58c0 1.22-.84 1.67-2 1.67h-.82v2.18h-.38V22h1.23c1.23 0 1.97.46 1.97 1.58zm-.4 0c0-1-.58-1.3-1.59-1.3h-.85v2.64h.83c.94.01 1.61-.3 1.61-1.33zM113.64 25.89l-.5 1.54h-.39L114.6 22h.48l1.85 5.47h-.41l-.52-1.58zm1.2-3.62l-1.09 3.29h2.16zM120.66 22.3v5.13h-.37V22.3h-1.64V22h3.69v.34zM125.56 24.72v2.71h-.38V22h.38v2.42h2.73V22h.39v5.47h-.39v-2.75zM132.36 27.43V22h.38v5.47zM139.61 22.37l-.2.25a1.67 1.67 0 00-1.14-.41c-1 0-1.81.71-1.81 2.48s.79 2.48 1.79 2.48a1.78 1.78 0 001.21-.46l.22.25a2 2 0 01-1.45.56c-1.25 0-2.17-1-2.17-2.83s1-2.81 2.19-2.81a1.91 1.91 0 011.36.49zM151 27.43l-.27-2.67c-.1-.89-.19-1.92-.23-2.44l-1.44 4.45h-.37l-1.49-4.45c0 .51-.12 1.55-.2 2.4l-.26 2.71h-.36l.54-5.47h.53l1.43 4.36 1.41-4.32h.55l.55 5.47zM155.14 22.29v2.12h2v.33h-2v2.36h2.38v.33h-2.76V22h2.71l-.05.33zM164.17 24.65c0 2.27-1.32 2.78-2.42 2.78h-1.12V22h1.06c1.23 0 2.48.4 2.48 2.65zM161 27.1h.76c1 0 2-.44 2-2.45s-1.06-2.36-2.05-2.36H161zM167.5 27.43V22h.38v5.47zM174.75 22.37l-.21.25a1.64 1.64 0 00-1.13-.41c-1 0-1.82.71-1.82 2.48s.79 2.48 1.79 2.48a1.79 1.79 0 001.22-.46l.21.25a2 2 0 01-1.44.56c-1.25 0-2.18-1-2.18-2.83s1-2.81 2.19-2.81a1.94 1.94 0 011.37.49zM177.77 27.43V22h.38v5.47zM184.85 27.43l-2.71-5.05v5.05h-.36V22h.49l2.73 5c0-.26-.05-.88-.05-1.59V22h.36v5.47zM189.39 22.29v2.12h2v.33h-2v2.36h2.38v.33H189V22h2.71v.33z"/></g></g></svg>