<svg xmlns="http://www.w3.org/2000/svg" viewBox="0 0 1920 1753.36"><defs><style>.cls-1{fill:#fff;}.cls-2{fill:#304b78;}.cls-3,.cls-4{fill:none;}.cls-4{stroke:#cdb647;stroke-width:5px;}</style></defs><g id="Layer_2" data-name="Layer 2"><g id="TEXT"><rect id="Rectangle_186" data-name="Rectangle 186" class="cls-1" x="419.68" y="449.68" width="1080" height="1080" transform="translate(-418.73 968.46) rotate(-45)"/><polygon class="cls-2" points="1566.69 864.33 1920 1217.64 1920 511.02 1566.69 864.33"/><polygon class="cls-2" points="0 511.66 0 1217.64 352.99 864.65 0 511.66"/><polygon class="cls-1" points="1566.45 864.09 1566.69 864.33 1920 511.02 1920 510.54 1566.45 864.09"/><polygon class="cls-1" points="0 510.54 0 511.66 352.99 864.65 353.55 864.09 0 510.54"/><g id="Rectangle_193" data-name="Rectangle 193"><rect class="cls-3" x="349.67" y="253.71" width="1220" height="1220" transform="translate(-329.66 931.57) rotate(-45)"/><rect class="cls-4" x="352.17" y="256.21" width="1215" height="1215" transform="translate(-329.66 931.57) rotate(-45)"/></g><polygon class="cls-1" points="353.55 864.09 352.99 864.65 959.68 1471.34 1566.69 864.33 1566.45 864.09 1920 510.54 1920 508.33 1920 0 0 0 0 507.68 0 510.54 353.55 864.09"/></g></g></svg>