<svg xmlns="http://www.w3.org/2000/svg" viewBox="0 0 16.38 16.38"><defs><style>.cls-1{fill:#fff;fill-rule:evenodd;}</style></defs><g id="Layer_2" data-name="Layer 2"><g id="TEXT"><g id="Instagram"><path id="Path_3" data-name="Path 3" class="cls-1" d="M8.19,1.47a25.31,25.31,0,0,1,3.26.09A4.29,4.29,0,0,1,13,1.83a3.22,3.22,0,0,1,1.54,1.55,4.24,4.24,0,0,1,.28,1.54c0,.81.09,1.09.09,3.26a25.41,25.41,0,0,1-.09,3.27A4.34,4.34,0,0,1,14.54,13,3.16,3.16,0,0,1,13,14.54a4,4,0,0,1-1.54.27c-.82,0-1.09.09-3.27.09a23.81,23.81,0,0,1-3.27-.08,4.34,4.34,0,0,1-1.55-.28A3.16,3.16,0,0,1,1.83,13a4,4,0,0,1-.27-1.54c0-.82-.09-1.09-.09-3.27a25.51,25.51,0,0,1,.09-3.27,4.33,4.33,0,0,1,.27-1.55,3.35,3.35,0,0,1,.64-.9,1.5,1.5,0,0,1,.9-.64,4.33,4.33,0,0,1,1.55-.27,25.46,25.46,0,0,1,3.27-.09M8.19,0A26.88,26.88,0,0,0,4.83.11a5.66,5.66,0,0,0-2,.36,3.6,3.6,0,0,0-1.46.91,3.59,3.59,0,0,0-.9,1.45,4.17,4.17,0,0,0-.36,2A26.94,26.94,0,0,0,0,8.19a26.94,26.94,0,0,0,.09,3.36,5.7,5.7,0,0,0,.36,2A3.5,3.5,0,0,0,1.38,15a3.5,3.5,0,0,0,1.45.91,5.7,5.7,0,0,0,2,.36,26.94,26.94,0,0,0,3.36.09,26.94,26.94,0,0,0,3.36-.09,5.7,5.7,0,0,0,2-.36,3.81,3.81,0,0,0,2.36-2.36,5.49,5.49,0,0,0,.36-2c0-.91.09-1.18.09-3.36a26.94,26.94,0,0,0-.09-3.36,5.49,5.49,0,0,0-.36-2A3.5,3.5,0,0,0,15,1.38,3.48,3.48,0,0,0,13.54.47a5.62,5.62,0,0,0-2-.36A26.72,26.72,0,0,0,8.19,0m0,4A4.11,4.11,0,0,0,4,8.05v.14A4.18,4.18,0,1,0,8.19,4m0,6.9A2.68,2.68,0,0,1,5.46,8.28V8.19A2.69,2.69,0,0,1,8.09,5.46h.1a2.68,2.68,0,0,1,2.72,2.63v.1a2.68,2.68,0,0,1-2.62,2.72h-.1m4.35-8.08a1,1,0,1,0,1,1,1,1,0,0,0-1-1"/></g></g></g></svg>