<svg xmlns="http://www.w3.org/2000/svg" viewBox="0 0 191.77 27.52"><defs><style>.cls-1{fill:#304b78;}.cls-2{fill:#2d325a;}</style></defs><g id="Layer_2" data-name="Layer 2"><g id="TEXT"><path class="cls-1" d="M10.27,9.07c0,5.9-3.68,7.31-6.81,7.31H0V1.91H3C6.72,1.91,10.27,3.07,10.27,9.07ZM2,14.8H3.61c2.27,0,4.54-1,4.54-5.73S5.77,3.51,3.46,3.51H2Z"/><path class="cls-1" d="M19.32,5.19,19,7.08A3.19,3.19,0,0,0,18,7c-1.39,0-2.19,1-2.65,3.11v6.32H13.42V5.31h1.66l.19,2.25c.58-1.66,1.61-2.5,3-2.5A4.45,4.45,0,0,1,19.32,5.19Z"/><path class="cls-1" d="M22,15.16a1.46,1.46,0,1,1-1.47-1.45A1.45,1.45,0,0,1,22,15.16Z"/><path class="cls-1" d="M33.45,16.38,28.79,1.91h2.14l3.63,12.3L38.2,1.91h2L35.59,16.38Z"/><path class="cls-1" d="M44.65,1.32a1.29,1.29,0,0,1-1.37,1.3,1.27,1.27,0,0,1-1.34-1.3A1.28,1.28,0,0,1,43.28,0,1.3,1.3,0,0,1,44.65,1.32ZM42.34,16.38V5.31h1.93V16.38Z"/><path class="cls-1" d="M55.67,6.26l-1,1.26a3.47,3.47,0,0,0-2.35-.86c-1.74,0-2.83,1.36-2.83,4.24S50.63,15,52.37,15a3.61,3.61,0,0,0,2.38-.9l.92,1.32a5.22,5.22,0,0,1-3.38,1.22c-3,0-4.83-2.12-4.83-5.69s1.83-5.88,4.83-5.88A4.93,4.93,0,0,1,55.67,6.26Z"/><path class="cls-1" d="M61.4,16.63c-1.87,0-3-1.09-3-3.15V6.8H56.49V5.31h1.93V2.81l1.93-.23V5.31H63L62.77,6.8H60.35v6.6c0,1.11.36,1.63,1.33,1.63a2.68,2.68,0,0,0,1.47-.48l.73,1.32A4.16,4.16,0,0,1,61.4,16.63Z"/><path class="cls-1" d="M74.74,10.83c0,3.43-1.81,5.8-4.94,5.8s-4.93-2.27-4.93-5.78,1.8-5.79,4.95-5.79S74.74,7.33,74.74,10.83Zm-7.79,0c0,2.88,1,4.23,2.85,4.23s2.86-1.35,2.86-4.25-1-4.22-2.84-4.22S67,8,67,10.85Z"/><path class="cls-1" d="M83.83,5.19l-.36,1.89a3.19,3.19,0,0,0-1-.13c-1.39,0-2.19,1-2.65,3.11v6.32H77.93V5.31h1.66l.19,2.25c.59-1.66,1.61-2.5,3-2.5A4.4,4.4,0,0,1,83.83,5.19Z"/><path class="cls-1" d="M88.35,1.32A1.29,1.29,0,0,1,87,2.62a1.27,1.27,0,0,1-1.34-1.3A1.28,1.28,0,0,1,87,0,1.3,1.3,0,0,1,88.35,1.32ZM86,16.38V5.31H88V16.38Z"/><path class="cls-1" d="M100.34,15.29l-.45,1.34A2.24,2.24,0,0,1,97.73,15a3.77,3.77,0,0,1-3.29,1.66,3.22,3.22,0,0,1-3.53-3.34c0-2.37,1.78-3.65,4.87-3.65h1.7V8.82c0-1.6-.78-2.19-2.31-2.19a9.82,9.82,0,0,0-3,.59l-.48-1.4a10.68,10.68,0,0,1,3.82-.76c2.66,0,3.88,1.36,3.88,3.67v5.06C99.41,14.76,99.77,15.08,100.34,15.29Zm-2.86-1.83V10.92H96c-2,0-3.06.75-3.06,2.27a1.74,1.74,0,0,0,1.91,2A2.85,2.85,0,0,0,97.48,13.46Z"/><path class="cls-1" d="M118.12,3.09,117,4.37a4.21,4.21,0,0,0-2.79-1.07c-2.19,0-4,1.47-4,5.83,0,4.18,1.74,5.82,4,5.82a4.84,4.84,0,0,0,3.06-1.22l1,1.28a5.65,5.65,0,0,1-4.14,1.62c-3.5,0-6-2.63-6-7.5s2.73-7.47,6-7.47A5.66,5.66,0,0,1,118.12,3.09Z"/><path class="cls-1" d="M129.13,8.44v7.94h-1.94V8.71c0-1.66-.71-2.14-1.76-2.14a3.38,3.38,0,0,0-2.79,1.93v7.88h-1.93V.88l1.93-.21V6.84a4,4,0,0,1,3.27-1.78A3,3,0,0,1,129.13,8.44Z"/><path class="cls-1" d="M141.39,15.29,141,16.63A2.23,2.23,0,0,1,138.79,15a3.8,3.8,0,0,1-3.3,1.66A3.22,3.22,0,0,1,132,13.29c0-2.37,1.79-3.65,4.87-3.65h1.7V8.82c0-1.6-.77-2.19-2.3-2.19a9.93,9.93,0,0,0-3,.59l-.48-1.4a10.72,10.72,0,0,1,3.82-.76c2.67,0,3.89,1.36,3.89,3.67v5.06C140.47,14.76,140.82,15.08,141.39,15.29Zm-2.86-1.83V10.92h-1.44c-2,0-3.07.75-3.07,2.27a1.74,1.74,0,0,0,1.91,2A2.83,2.83,0,0,0,138.53,13.46Z"/><path class="cls-1" d="M152.86,8.44v7.94h-1.94V8.71c0-1.66-.67-2.14-1.74-2.14a3.34,3.34,0,0,0-2.81,1.95v7.86h-1.93V5.31h1.66L146.26,7a4,4,0,0,1,3.38-1.89C151.68,5.06,152.86,6.34,152.86,8.44Z"/><path class="cls-1" d="M157.77,15.45a2.77,2.77,0,0,1-.28,1.14L156.41,19h-1l.64-2.65a1.15,1.15,0,0,1-.45-.93,1.11,1.11,0,1,1,2.22,0Z"/><path class="cls-1" d="M170.13,16.38,165.65,7c.08.92.2,2.26.2,4.31v5.06h-1.42v-11h2l4.53,9.38c0-.26-.2-2-.2-3.36v-6h1.42v11Z"/><path class="cls-1" d="M176.78,15.45a1.11,1.11,0,1,1-1.12-1.11A1.11,1.11,0,0,1,176.78,15.45Z"/><path class="cls-1" d="M187,10.81c0,4.49-2.8,5.57-5.18,5.57H179.2v-11h2.3C184.32,5.35,187,6.23,187,10.81Zm-6.3,4.37H182c1.73,0,3.46-.74,3.46-4.37s-1.81-4.25-3.57-4.25h-1.12Z"/><path class="cls-1" d="M190.6,15.45a1.11,1.11,0,1,1-1.12-1.11A1.11,1.11,0,0,1,190.6,15.45Z"/><path class="cls-2" d="M0,27.43V22H.38v5.47Z"/><path class="cls-2" d="M7.08,27.43,4.37,22.38c0,.35,0,.83,0,1.79v3.26H4.06V22h.48l2.71,5c0-.26,0-.88,0-1.59V22h.36v5.47Z"/><path class="cls-2" d="M12.46,22.3v5.13h-.37V22.3H10.45V22h3.69l-.05.34Z"/><path class="cls-2" d="M17.36,22.29v2.12h2v.33h-2V27.1h2.38v.33H17V22h2.71l0,.33Z"/><path class="cls-2" d="M26.2,22.4l-.23.24a1.86,1.86,0,0,0-1.24-.43c-.88,0-1.83.68-1.83,2.46s.72,2.51,1.84,2.51a2.29,2.29,0,0,0,1.19-.3v-2H24.82l-.05-.33H26.3v2.57a3,3,0,0,1-1.57.44c-1.33,0-2.23-1-2.23-2.85s1.12-2.79,2.23-2.79A2.13,2.13,0,0,1,26.2,22.4Z"/><path class="cls-2" d="M30,24.93v2.5h-.37V22H30.9c1.29,0,1.89.52,1.89,1.46a1.38,1.38,0,0,1-1.23,1.44l1.51,2.57h-.46l-1.44-2.5Zm2.41-1.51c0-.74-.42-1.13-1.52-1.13H30v2.32h1C31.86,24.61,32.39,24.25,32.39,23.42Z"/><path class="cls-2" d="M36.25,25.89l-.51,1.54h-.38L37.21,22h.48l1.84,5.47h-.4l-.51-1.54Zm1.2-3.62-1.09,3.29h2.16Z"/><path class="cls-2" d="M43.27,22.3v5.13H42.9V22.3H41.26V22H45l-.05.34Z"/><path class="cls-2" d="M47.79,27.43V22h.39v5.47Z"/><path class="cls-2" d="M52.88,27.43,51.09,22h.41L53.1,27,54.71,22h.4l-1.79,5.47Z"/><path class="cls-2" d="M58.41,22.29v2.12h2v.33h-2V27.1h2.38v.33H58V22h2.71l-.05.33Z"/><path class="cls-2" d="M71,27.43l-2.71-5.05c0,.35,0,.83,0,1.79v3.26H68V22h.48l2.71,5c0-.26,0-.88,0-1.59V22h.36v5.47Z"/><path class="cls-2" d="M75.34,25.89l-.51,1.54h-.38L76.3,22h.47l1.85,5.47h-.41l-.5-1.54Zm1.2-3.62-1.09,3.29h2.16Z"/><path class="cls-2" d="M82.36,22.3v5.13H82V22.3H80.34V22H84L84,22.3Z"/><path class="cls-2" d="M88.55,27.52a1.61,1.61,0,0,1-1.75-1.78V22h.38v3.75c0,.89.41,1.46,1.37,1.46s1.37-.58,1.37-1.46V22h.38v3.78A1.62,1.62,0,0,1,88.55,27.52Z"/><path class="cls-2" d="M94.28,24.93v2.5H93.9V22h1.29c1.3,0,1.9.52,1.9,1.46a1.39,1.39,0,0,1-1.24,1.44l1.52,2.57H96.9l-1.44-2.5Zm2.41-1.51c0-.74-.42-1.13-1.52-1.13h-.89v2.32h1C96.16,24.61,96.69,24.25,96.69,23.42Z"/><path class="cls-2" d="M104.38,24.7c0,1.79-.86,2.82-2.21,2.82s-2.19-1-2.19-2.81.9-2.83,2.19-2.83S104.38,22.85,104.38,24.7Zm-4,0c0,1.65.73,2.47,1.79,2.47S104,26.36,104,24.7s-.71-2.49-1.81-2.49S100.38,23,100.38,24.71Z"/><path class="cls-2" d="M110.92,23.58c0,1.22-.84,1.67-2,1.67h-.82v2.18h-.38V22h1.23C110.18,22,110.92,22.46,110.92,23.58Zm-.4,0c0-1-.58-1.3-1.59-1.3h-.85v2.64h.83C109.85,24.93,110.52,24.62,110.52,23.59Z"/><path class="cls-2" d="M113.64,25.89l-.5,1.54h-.39L114.6,22h.48l1.85,5.47h-.41L116,25.89Zm1.2-3.62-1.09,3.29h2.16Z"/><path class="cls-2" d="M120.66,22.3v5.13h-.37V22.3h-1.64V22h3.69l0,.34Z"/><path class="cls-2" d="M125.56,24.72v2.71h-.38V22h.38v2.42h2.73V22h.39v5.47h-.39V24.72Z"/><path class="cls-2" d="M132.36,27.43V22h.38v5.47Z"/><path class="cls-2" d="M139.61,22.37l-.2.25a1.67,1.67,0,0,0-1.14-.41c-1,0-1.81.71-1.81,2.48s.79,2.48,1.79,2.48a1.78,1.78,0,0,0,1.21-.46l.22.25a2,2,0,0,1-1.45.56c-1.25,0-2.17-1-2.17-2.83s1-2.81,2.19-2.81A1.91,1.91,0,0,1,139.61,22.37Z"/><path class="cls-2" d="M151,27.43l-.27-2.67c-.1-.89-.19-1.92-.23-2.44l-1.44,4.45h-.37l-1.49-4.45c0,.51-.12,1.55-.2,2.4l-.26,2.71h-.36l.54-5.47h.53l1.43,4.36L150.29,22h.55l.55,5.47Z"/><path class="cls-2" d="M155.14,22.29v2.12h2v.33h-2V27.1h2.38v.33h-2.76V22h2.71l-.05.33Z"/><path class="cls-2" d="M164.17,24.65c0,2.27-1.32,2.78-2.42,2.78h-1.12V22h1.06C162.92,22,164.17,22.4,164.17,24.65ZM161,27.1h.76c1,0,2-.44,2-2.45s-1.06-2.36-2.05-2.36H161Z"/><path class="cls-2" d="M167.5,27.43V22h.38v5.47Z"/><path class="cls-2" d="M174.75,22.37l-.21.25a1.64,1.64,0,0,0-1.13-.41c-1,0-1.82.71-1.82,2.48s.79,2.48,1.79,2.48a1.79,1.79,0,0,0,1.22-.46l.21.25a2,2,0,0,1-1.44.56c-1.25,0-2.18-1-2.18-2.83s1-2.81,2.19-2.81A1.94,1.94,0,0,1,174.75,22.37Z"/><path class="cls-2" d="M177.77,27.43V22h.38v5.47Z"/><path class="cls-2" d="M184.85,27.43l-2.71-5.05c0,.35,0,.83,0,1.79v3.26h-.36V22h.49L185,27c0-.26-.05-.88-.05-1.59V22h.36v5.47Z"/><path class="cls-2" d="M189.39,22.29v2.12h2v.33h-2V27.1h2.38v.33H189V22h2.71l0,.33Z"/></g></g></svg>